<svg xmlns="http://www.w3.org/2000/svg" viewBox="0 0 48 48"><path fill="#f44336" d="M44,24c0,11.044-8.956,20-20,20S4,35.044,4,24S12.956,4,24,4S44,12.956,44,24z"/><path fill="#ffcc80" d="M16.602,29.199l5.598-2.801L24,29.602c0.898,1.598,1.398,3.5,1.398,5.398v0.898c0,1.203-1,2.203-2.199,2.203h-0.5c-0.398,0-0.699-0.301-0.801-0.703l-0.5-2C21.199,34.5,20.699,33.699,20.102,33L16.602,29.199z"/><path fill="#ffcc80" d="M29.801,14C29.102,14,19,14,19,14c-2.199,0-4,1.801-4,4v8c0,2.199,1.801,4,4,4h13c1.102,0,2-0.898,2-2s-0.5-1.5-0.5-2s0.5-0.898,0.5-2s-0.801-1.801-0.898-2.301c-0.203-0.598,0.098-1.598-0.203-2.301c-0.297-0.699-0.898-1.098-1-1.797c-0.098-0.703,0.301-1.5,0-2.301C31.5,14.699,30.801,14,29.801,14z"/></svg>